<svg xmlns="http://www.w3.org/2000/svg" xmlns:xlink="http://www.w3.org/1999/xlink" xmlns:inkscape="http://www.inkscape.org/namespaces/inkscape" version="1.1" width="520" height="480" viewBox="0 0 520 480">
<defs>
<clipPath id="clip_1">
<path transform="matrix(1,0,0,-1,-40,540)" d="M40 60H560V540H40Z"/>
</clipPath>
<clipPath id="clip_2">
<path transform="matrix(1,0,0,-1,-40,540)" d="M0 0H600V600H0Z"/>
</clipPath>
<clipPath id="clip_3">
<path transform="matrix(1,0,0,-1,-40,540)" d="M0 600H600V0H0Z"/>
</clipPath>
</defs>
<g clip-path="url(#clip_1)">
<g clip-path="url(#clip_2)">
<g inkscape:groupmode="layer" inkscape:label="Layer 1">
<g clip-path="url(#clip_3)">
<path transform="matrix(1,0,0,-1,15.0285,459.01643)" d="M0 0V-6.455H4.511C6.268-6.455 7.383-6.406 7.854-6.308 8.578-6.174 9.168-5.855 9.624-5.344 10.079-4.833 10.307-4.15 10.307-3.293 10.307-2.57 10.131-1.955 9.78-1.45 9.429-.945 8.921-.577 8.257-.347 7.593-.115 6.152 0 3.935 0ZM0 9.597V4.017H3.195C5.093 4.017 6.273 4.045 6.734 4.098 7.568 4.197 8.225 4.487 8.701 4.964 9.179 5.439 9.418 6.07 9.418 6.848 9.418 7.594 9.212 8.2 8.801 8.666 8.388 9.134 7.777 9.418 6.965 9.516 6.481 9.57 5.093 9.597 2.799 9.597ZM-4.872 13.615H4.774C6.685 13.615 8.108 13.535 9.048 13.377 9.986 13.216 10.826 12.886 11.567 12.381 12.307 11.874 12.924 11.204 13.418 10.363 13.913 9.524 14.16 8.582 14.16 7.538 14.16 6.409 13.855 5.37 13.246 4.428 12.636 3.485 11.81 2.777 10.768 2.305 12.239 1.877 13.369 1.146 14.16 .115 14.95-.918 15.345-2.13 15.345-3.526 15.345-4.623 15.09-5.688 14.579-6.725 14.068-7.764 13.372-8.594 12.488-9.214 11.605-9.834 10.516-10.213 9.22-10.357 8.408-10.444 6.448-10.5 3.343-10.521H-4.872Z" fill="#e83b3b"/>
<path transform="matrix(1,0,0,-1,74.4917,459.9891)" d="M0 0-3.324 8.958-6.585 0ZM8.973-9.548H3.671L1.565-4.065H-8.082L-10.075-9.548H-15.245L-5.845 14.587H-.691Z" fill="#e83b3b"/>
<path transform="matrix(1,0,0,-1,113.2775,469.5376)" d="M0 0V24.136H4.872V14.636H14.422V24.136H19.294V0H14.422V10.553H4.872V0Z" fill="#e83b3b"/>
<path transform="matrix(1,0,0,-1,169.7094,455.6085)" d="M0 0H3.606C5.943 0 7.403 .098 7.984 .295 8.566 .494 9.022 .833 9.351 1.317 9.68 1.8 9.845 2.403 9.845 3.127 9.845 3.94 9.628 4.595 9.195 5.096 8.761 5.594 8.149 5.909 7.359 6.042 6.964 6.097 5.778 6.125 3.802 6.125H0ZM-4.874-13.929V10.207H5.383C7.963 10.207 9.837 9.992 11.005 9.558 12.174 9.123 13.111 8.353 13.812 7.244 14.516 6.136 14.867 4.865 14.867 3.44 14.867 1.629 14.334 .133 13.269-1.047 12.204-2.226 10.614-2.969 8.495-3.278 9.548-3.891 10.418-4.566 11.104-5.303 11.791-6.038 12.715-7.344 13.878-9.222L16.826-13.929H10.998L7.474-8.679C6.223-6.799 5.367-5.617 4.905-5.128 4.445-4.64 3.956-4.307 3.44-4.126 2.924-3.943 2.107-3.853 .987-3.853H0V-13.929Z" fill="#e83b3b"/>
<path transform="matrix(1,0,0,-1,229.1724,459.9891)" d="M0 0-3.326 8.958-6.586 0ZM8.972-9.548H3.671L1.564-4.065H-8.084L-10.076-9.548H-15.246L-5.845 14.587H-.692Z" fill="#e83b3b"/>
<path transform="matrix(1,0,0,-1,-40,540)" d="M307.789 94.598H312.664V70.462H307.789Z" fill="#e83b3b"/>
<path transform="matrix(1,0,0,-1,304.5653,469.5376)" d="M0 0V24.136H4.741L14.62 8.017V24.136H19.147V0H14.257L4.528 15.74V0Z" fill="#e83b3b"/>
<path transform="matrix(1,0,0,-1,323.1879,369.5564)" d="M0 0-11.663-.069-11.02-46.142 .637-46.068ZM-45.038-.095-44.584-29.509C-44.547-32.901-46.442-34.738-49.574-34.761L-52.156-34.826V-34.832L-53.371-34.853C-58.585-34.898-61.76-31.606-61.815-26.474L-61.993-15.597-73.738-15.67-73.543-28.024C-73.489-32.989-75.902-35.007-80.424-35.031L-89.035-35.083V-35.099L-101.104-35.165C-101.299-18.555-114.925-10.665-130.761-10.77-141.197-10.833-152.609-16.826-152.725-30.226L-141.668-30.166C-141.218-23.712-136.467-21.256-130.639-21.208-119.768-21.133-112.976-24.45-112.937-35.244L-165.866-35.525V-35.528L-171.006-35.553C-176.144-35.585-179.218-32.478-179.444-27.606L-179.638-15.758-191.463-15.841-191.128-41.172C-191.117-49.424-197.616-52.078-201.788-52.11-206.83-52.138-211.812-50.169-211.812-50.169L-209.785-59.808C-209.785-59.808-205.509-61.791-200.108-62.176-190.356-62.905-180.599-56.666-179.426-44.477-177.232-46.036-174.185-47.14-170.176-47.119L-164.963-47.091V-47.087L-85.596-46.649V-46.639L-76.978-46.573C-71.588-46.551-67.093-44.072-65.055-40.4-62.752-43.532-58.894-46.464-52.534-46.429L-51.308-46.39V-46.385L-48.397-46.32C-33.782-46.232-32.794-33.701-32.851-28.742L-33.291-.014ZM-73.457-51.51-73.338-61.513-61.504-61.45-61.613-51.434ZM-227.529-52.445-227.421-62.446-215.589-62.365-215.705-52.362ZM-244.755-52.548-244.644-62.55-232.811-62.481-232.927-52.469ZM-224.309-15.756-224.06-30.7C-224.023-34.081-225.909-35.929-229.046-35.956L-242.94-36.016V-36.025L-244.741-36.052C-249.97-36.079-253.134-32.797-253.195-27.662L-253.4-14.079-265.062-14.161-264.785-33.13C-264.664-43.921-274.593-51.016-283.54-51.073-291.976-51.125-301.68-42.999-301.782-33.603-301.875-25.596-299.326-20.28-299.326-20.28L-311.511-20.36C-312.937-24.969-313.248-27.929-313.179-33.673-312.991-50.191-298.717-62.908-283.406-62.809-270.8-62.73-258.271-55.538-254.572-43.763-252.206-45.924-248.791-47.638-243.916-47.611L-242.378-47.573V-47.57L-227.864-47.501C-213.25-47.414-212.27-34.898-212.32-29.928L-212.559-15.674ZM-277.786-29.952-277.905-19.862-289.824-19.936-289.712-30.023Z" fill="#1d1d1b"/>
<path transform="matrix(1,0,0,-1,171.3873,147.7362)" d="M0 0C1.9 3.113 4.238 6.182 7.64 8.053 7.788 8.127 7.647 7.851 7.924 7.957L8.352 8.127 7.004 7.376C5.685 5.964 5.35 5.358 5.031 4.992H5.024L4.94 4.877 4.515 4.306H4.529L4.424 4.17 3.838 3.588 3.484 2.954 3.2 2.725C2.339 1.508 2.339 1.508 1.483 .238H1.586C1.577 .175 1.303-.273 1.043-.783 .851-1.3 .851-1.3 .291-2.561 .291-2.566 .291-2.561 .677-2.009L.369-2.517 .588-2.441 .304-2.621 .359-2.908C.359-2.908 .352-2.9-.461-3.858-.48-3.946-.536-4.147-.671-4.68L-.673-4.953C-.628-4.981-.628-4.981-.605-5.456H-.473L-.202-5.354 .047-5.032C.15-4.833 .173-4.781 .56-4.063L.571-4.27C.804-4.513 .814-4.489 1.823-3.836 1.823-3.836 2.189-3.391 2.623-2.641 3.053-1.748 2.987-1.725 3.688-.769 3.688-.769 3.842-.557 4.105-.207L4.649 .197 4.66 .203 4.378-.349C4.197-.832 4.315-.977 4.639-.677 4.751-1.387 5.306-1.294 6.002-.95L6.287-1.425C6.222-2.275 6.361-2.845 6.674-3.217L6.986-3.454C7.393-3.435 7.979-3.102 8.615-2.531L8.82-2.375 8.981-2.741C10.17-2.189 11.95-1.354 13.136-1.354L13.887-1.338C14.388-1.638 15.096-1.092 15.338-1.431L15.577-1.445 15.628-1.51C15.51-1.835 15.612-2.641 15.765-3.173 16.602-4.342 14.37-10.608 9.706-13.588L8.853-14.62C8.22-14.58 7.707-14.795 7.32-15.173L7.001-15.008 7.205-15.306C7.124-15.397 7.035-15.478 6.967-15.579L6.978-15.812 7.194-15.931 8.133-15.94C8.155-15.935 8.178-15.935 8.2-15.93 8.163-16.095 8.16-16.276 8.215-16.483 7.792-16.786 7.493-17.259 7.432-17.967L7.505-18.259 7.735-18.33 9.017-18.033 9.166-18.202 9.243-18.24C9.245-18.241 9.245-18.243 9.246-18.243L9.082-18.266 9.056-18.794 9.054-18.811 9.049-18.943 9.057-18.959 9.056-18.989 8.968-19.022 8.943-19.138 8.843-19.065 8.486-19.188 8.559-19.259 8.47-19.378 8.25-19.49 8.411-19.57 8.296-19.521 8.409-19.661 8.278-19.525 8.331-19.659C8.334-19.658 8.331-19.659 7.982-19.414L7.95-19.548 7.987-19.644 8.084-19.872 8.162-19.987 8.306-20.142 8.404-20.209 8.589-20.231 8.627-20.32C8.793-20.587 8.793-20.587 9.302-21.083L9.647-21.232 9.935-21.141 10.042-21.12 10.262-21.267 10.236-21.369 10.451-21.708 11.272-22.713 11.539-23.15 12.131-24.346 12.355-24.676 13.094-25.202 13.19-25.25 13.354-25.549 15.421-26.925 15.829-27.145 16.741-27.335 17.015-27.243 17.154-27.145C17.188-27.655 17.432-28.244 17.858-28.715 18.564-29.484 19.518-29.615 19.98-29.017 20.892-28.15 21.754-27.254 22.581-26.309L28.711-23.145C29.524-22.754 30.337-22.373 31.147-22.003 31.442-22.05 31.753-21.965 31.951-21.645 37.63-19.103 43.17-17.19 47.967-17.055 53.18-16.531 53.884-17.672 55.512-21.94 56.339-24.993 54.261-29.076 51.525-33.029L51.53-33.174 51.875-32.892C57.885-27.046 58.218-20.152 54.518-16.208 54.384-15.608 53.863-15.359 53.256-15.259L53.084-15.157 51.738-14.3 52.229-14.581C52.549-14.767 52.885-14.767 52.986-14.63L52.945-14.385C54.649-14.472 55.375-15.624 56.509-16.618 56.746-16.733 57.336-17.446 57.396-17.814 57.631-19.794 58.496-21.615 57.573-23.483L57.453-23.931C57.3-24.535 57.486-25.187 57.369-25.553L57.426-25.798C55.943-30.605 50.938-34.651 46.542-38.026 46.304-38.179 46.199-38.307 46.281-38.365L45.94-38.517 44.035-39.762 43.916-39.951 44.333-39.806 46.338-38.496 46.441-38.37 47.081-38.13C51.913-34.897 56.325-30.85 58.204-26.039 57.303-28.425 56.066-30.899 53.835-33.1 51.342-35.776 48.593-38.223 45.112-39.921L44.863-40.153 45.252-40.044C52.202-36.344 57.535-30.547 59.086-23.985L59.23-23.21C59.64-25.375 58.794-27.535 57.896-29.796 53.775-35.839 46.965-40.265 39.905-42.783 39.553-42.881 39.287-43.047 39.318-43.14 39.345-43.225 39.674-43.219 40.035-43.113 44.25-42.171 48.366-40.238 51.976-37.726L51.287-38.359 50.548-38.927C48.264-40.664 45.508-41.636 42.951-42.939 41.914-43.225 41.13-43.69 41.154-43.963 41.212-44.227 42.063-44.214 43.098-43.924L42.619-44.112 42.408-44.285 42.877-44.227 44.528-43.378C49.644-41.166 54.649-38.28 58.313-33.873 54.621-38.892 49.021-41.974 43.364-44.539 43.476-44.473 43.476-44.415 43.314-44.429L42.798-44.588C42.671-44.659 42.715-44.705 42.853-44.694H42.869C39.711-45.898 36.329-46.578 32.751-46.578L32.366-46.699C32.366-46.742 32.552-46.778 32.78-46.764 44.411-46.185 55.094-40.189 60.645-30.697L61.527-29.125H61.533C61.814-29.064 62.177-28.805 62.587-28.387 60.973-32.123 58.376-35.017 55.594-37.789 52.893-39.539 50.43-41.696 47.413-42.867 46.996-43.061 46.686-43.307 46.728-43.427 46.763-43.536 47.152-43.449 47.595-43.25L49.753-42.226C49.234-42.635 48.933-43.004 49.008-43.219 49.07-43.436 49.466-43.471 50.053-43.356 46.947-45.177 43.786-46.906 40.305-48.023 40.105-48.102 39.998-48.173 40.088-48.212L40.589-48.124C45.68-46.633 50.206-44.336 54.22-41.161 57.705-39.195 60.94-36.524 63.6-32.576 64.745-31.225 65.558-29.659 66.095-27.99 64.699-32.44 62.06-36.405 59.059-38.922 52.551-44.998 45.287-49.375 35.657-50.92 34.399-51.057 33.472-51.329 33.62-51.576 33.769-51.81 34.99-51.919 36.303-51.775 45.761-50.442 52.462-46.431 59.039-40.592 63.155-35.932 67.578-31.388 67.906-23.576 68.198-15.717 64.296-6.111 55.176-3.858 54.384-3.419 53.636-3.254 52.885-3.254L50.602-3.088C44.548-2.381 39.516-3.62 34.608-4.781 40.224-2.785 46.63-1.671 53.931-2.359 54.423-2.354 54.848-2.531 54.805-2.375 54.723-2.217 54.239-1.971 53.74-1.977 44.073-.566 36.83-3.188 29.761-5.704 30.163-4.958 30.535-4.561 30.925-1.103 29.032 8.692 27.435 8.369 21.331 12.777 14.603 15.619 7.807 12.61 4.249 9.522 3.73 9.06 3.312 8.52 3.326 8.383 3.349 8.241 3.764 8.509 4.285 8.981 6.772 10.551 8.974 12.056 12.796 12.49 19.757 13.754 26.442 8.572 28.279 4.266L28.729 3.438C28.683 3.389 29.336 2.357 29.477 .77L29.377 1.319C28.575 3.867 28.661 2.905 28.249 3.867L28.356 3.561C26.997 5.467 26.239 7.42 23.748 9.06 13.229 17.918 .213 6.144-.541-.079-.77-.696-.832-1.179-.684-1.152-.526-1.122-.228-.595 0 0" fill="#e83b3b"/>
<path transform="matrix(1,0,0,-1,284.1766,136.0105)" d="M0 0C.074-2.297-.364-4.689-.637-7.001L-.615-6.177C-.615-5.907-.549-5.38-.741-5.658-.405-3.452-.309-1.262-.445 .934L-.609 3.347C-.364 4.24-.022 5.221 .021 6.403 .089 4.412 0 2.102 0 0M-3.965 10.177-3.782 10.786C-3.782 10.786-3.859 10.518-3.965 10.177M-4.85 17.317V17.309L-5.065 17.989C-5.312 18.557-5.524 18.584-5.557 18.066-6.237 18.584-6.647 18.066-6.938 17.159-7.172 17.361-7.383 17.427-7.564 17.355-7.939 17.819-8.29 18.138-8.634 18.371-10.641 21.553-13.088 24.425-15.87 26.891-15.582 26.678-15.322 26.535-15.239 26.601-15.138 26.686-15.425 27.085-15.884 27.513L-18.15 29.53C-17.378 29.181-16.849 28.941-16.616 29.135-16.409 29.287-16.573 29.762-16.998 30.38-13.372 27.573-9.874 24.504-7.103 20.84-6.938 20.616-6.819 20.531-6.825 20.654L-7.11 21.216C-11.04 26.628-16.027 30.971-21.624 34.226-25.879 37.077-30.515 39.449-36.372 40.536-44.556 42.485-56.295 38.014-58.733 28.491-60.008 25.526-60.314 22.446-60.368 19.628-60.511 20.026-60.669 20.255-60.827 20.266L-60.95 20.214C-60.781 22.779-60.573 25.514-59.563 28.256-54.121 43.588-35.654 42.774-26.793 38.533-18.419 35.165-10.882 29.713-5.421 22.271-5.407 22.019-5.386 21.738-5.341 21.402-5.096 20.241-5.025 20.25-4.815 18.909-4.815 18.909-4.781 18.606-4.718 18.109-4.766 17.707-4.793 17.612-4.85 17.317M-10.167 15.772-10.139 15.875-8.746 15.002ZM-40.632 37.366C-35.564 37.423-30.774 36.011-26.261 34.081-22.861 32.304-19.6 30.234-16.774 27.639-22.577 32.487-29.658 35.663-36.968 36.444L-39.223 36.609V36.619C-39.446 36.878-39.947 37.137-40.632 37.366M-10.489 15.952-10.939 16.187C-11.68 14.494-11.74 11.567-12.56 9.685L-12.909 8.312C-13.203 7.307-13.291 5.802-13.239 4.068L-13.27 3.362C-13.025 3.494-13.15 3.38-13.286 3.003L-13.318 2.275-13.285 1.144C-13.546 2.024-13.42 2.633-13.286 3.003L-13.27 3.362C-13.3 3.346-13.316 3.339-13.358 3.315-14.735 2.722-14.038-3.63-14.426-7.355-14.541-10.568-18.241-10.341-18.574-11.196-20.243-10.703-24.005-8.976-26.93-6.633-33.625-1.584-39.756 5.412-43.264 12.782-46.907 17.486-46.274 26.009-44.242 26.552-41.396 28.496-35.271 29.307-29.412 27.393L-29.261 27.48-29.739 27.764C-39.728 31.303-48.54 29.617-48.283 21.957-48.493 21.099-48.54 20.119-48.389 19.005L-48.403 18.623C-48.371 17.992-48.457 16.751-48.393 16.323-48.377 16.278-48.359 16.232-48.337 16.165-48.364 16.173-48.381 16.237-48.393 16.323-48.545 16.731-48.485 16.318-48.485 16.714-48.499 17.383-48.679 17.945-48.897 17.978L-49.121 17.707C-49.621 20.299-49.684 22.653-49.339 24.701L-48.93 26.285C-47.592 27.978-46.142 29.244-43.75 29.626L-43.174 29.713C-42.341 29.726-41.568 29.949-41.169 30.244L-40.926 30.503C-34.534 30.885-27.053 28.07-21.231 24.144-20.941 23.922-20.737 23.866-20.723 23.985L-20.376 23.658-18.055 22.025-17.768 21.97-18.145 22.388-20.594 24.108-20.777 24.176-21.372 24.794C-27.312 29.112-34.499 31.57-41.047 31.424-37.868 31.703-34.198 31.484-30.553 30.099-26.179 28.54-22.001 26.628-18.397 23.311L-18.023 23.128-18.328 23.524C-25.802 29.992-35.462 33.018-43.969 31.526L-44.875 31.201C-42.628 32.563-39.605 32.951-36.549 33.002-27.347 31.389-18.721 25.815-12.766 18.399-12.511 18.01-12.226 17.738-12.139 17.809-12.054 17.88-12.192 18.278-12.451 18.672-15.568 23.183-19.603 27.148-24.324 30.188L-23.241 29.689-22.25 29.062C-19.259 27.049-16.444 24.693-14.086 21.926-13.211 20.884-12.28 20.201-11.974 20.337-11.698 20.507-12.171 21.451-13.031 22.497L-12.559 22.041-12.252 21.877-12.573 22.369-14.271 24.001C-19.06 29.244-25.223 33.297-32.079 35.406-24.62 33.398-17.716 29.013-12.458 23.041-12.594 23.144-12.657 23.117-12.56 22.937L-12.115 22.432C-11.967 22.325-11.936 22.388-12.017 22.541L-12.029 22.56C-10.928 21.322-9.97 19.97-9.077 18.574-9.197 18.62-9.317 18.718-9.438 18.737L-9.929 18.723C-10.21 18.376-10.412 17.519-10.454 16.318ZM-18.014-11.321C-17.925-11.258-17.872-11.227-17.757-11.146-17.605-11.32-17.747-11.353-18.014-11.321M2.519-13.451C5.419-6.071 5.502 3.893 3.85 11.94 3.793 12.558 3.618 13.14 3.472 13.199 3.328 13.248 3.265 12.79 3.334 12.156 3.377 9.65 3.458 7.429 3.458 4.789 3.52-.101 2.911-4.817 2.151-10.125L1.86-11.084 1.181-12.438 1.23-12.236 1.826-10.393 1.654-10.715 2.519-3.954C3.58 4.434 2.392 14.106-.582 21.495-.806 22.199-1.082 22.653-1.211 22.516-1.32 22.388-1.24 21.711-1.019 21.042-.377 17.224 .376 13.413 .347 9.83 .35 9.685 .13 9.895 .103 9.62L.063 9.21-.022 10.616C-.542 12.443-.7 13.134-.902 13.595V13.604L-.951 13.746-1.191 14.423-1.211 14.418-1.278 14.581-1.415 15.409-1.646 16.165-1.636 16.234C-1.074 15.206-.535 14.565-.368 14.797-.172 15.07-.549 16.449-1.232 17.809-1.467 18.281-1.745 18.707-1.993 19.164-2.024 19.355-2.051 19.523-2.094 19.783L-2.191 19.701C-2.203 19.758-2.368 20.293-2.546 20.919-2.734 21.523-2.734 21.523-3.113 23.057L-3.07 22.276-3.138 22.948-3.291 22.719-3.159 23.078-3.405 23.311-3.31 24.72C-3.351 24.815-3.446 25.045-3.684 25.629L-3.87 25.864C-3.926 25.859-3.926 25.859-4.293 26.29L-4.41 26.206-4.606 25.924C-4.606 25.924-4.62 25.73-4.606 25.465-4.569 25.203-4.56 25.132-4.405 24.204L-4.569 24.39C-4.826 24.432-4.924 24.402-5.085 24.034-10.167 30.894-17.032 35.769-24.92 39.267-32.285 42.033-39.805 43.855-49.012 40.564-60.846 35.805-63.047 22.653-61.314 13.983L-60.527 11.326-59.582 8.683C-57.081 2.026-53.613-3.277-49.99-8.591-54.538-2.289-59.254 3.342-61.982 12.017-62.187 12.609-62.419 12.975-62.504 12.891-62.592 12.768-62.501 12.2-62.288 11.599-58.255-.058-51.953-8.066-44.575-15.887-43.019-18.535-39.272-23.615-33.721-26.765-31.818-28-30.097-29.079-27.566-29.643-28.571-29.196-29.739-28.857-30.539-28.3-27.662-29.583-24.693-30.165-22.064-30.722L-21.368-30.951C-14.5-33.264-1.964-27.825 .21-20.125L-.405-20.425C.362-19.213 1.16-18.47 1.476-17.247L.908-18.213 .942-18.132C1.524-16.843 2.07-15.204 2.519-13.451" fill="#e83b3b"/>
<path transform="matrix(1,0,0,-1,508.138,15.248474)" d="M0 0C-50.516-22.971-92.849-58.458-132.304-93.658L-138.859-99.376V-99.37C-139.755-99.737-141.38-100.794-143.474-102.349-129.432-89.868-115.36-77.553-100.888-65.581-88.639-55.837-76.318-46.158-63.397-37.209-61.542-35.904-60.08-34.708-60.137-34.527-60.183-34.342-61.78-35.328-63.733-36.687L-73.151-43.394C-70.745-41.311-69.18-39.923-69.215-39.503-69.229-39.128-70.71-39.807-73.03-41.184-59.377-30.971-45.559-21.177-31.419-12.45-30.594-11.909-30.183-11.59-30.513-11.709-30.845-11.822-31.731-12.304-32.536-12.826-53.296-25.217-72.454-39.288-91.001-54.038-106.03-65.189-120.243-76.685-135.618-89.732-157.947-108.78-177.992-127.588-198.359-145.808L-220.844-164.583C-219.894-163.595-219.383-162.926-219.513-162.781L-219.771-162.797C-213.204-157.358-206.638-151.85-200.028-146.111-138.641-93.423-84.742-37.278-13.74 .578-9.12 2.83-5.898 4.717-6.608 4.784-7.308 4.854-11.726 3.054-16.355 .807-50.613-16.993-78.641-38.361-107.808-62.857-128.53-80.38-146.098-96.351-166.117-114.512-189.499-136.108-211.548-154.485-235.365-175.017L-242.331-180.955-249.313-187.1C-267.698-202.833-285.952-217.994-304.464-232.591-282.711-214.635-261.311-196.296-240.711-177.624-239.21-176.297-238.306-175.325-238.552-175.363-238.915-175.484-240.338-176.579-241.838-177.903-270.78-203.691-300.707-228.424-330.954-252.628-340.166-258.025-358.272-270.959-374.428-282.802-381.165-287.807-386.105-292.474-391.263-297.179L-383.829-290.963C-391.14-297.28-396.942-302.902-402.748-307.85L-404.382-309.088C-406.595-310.664-408.997-312.32-411.42-313.876L-409.716-303.276-410.383-304.608C-409.729-300.843-409.128-298.675-408.551-294.492L-409.32-297.891-409.285-297.637C-408.451-293.222-407.751-287.799-407.268-282.111-405.849-269.626-404.262-254.07-408.625-236.419-408.742-235.951-408.886-235.472-409.014-235-409.467-232.606-410.511-228.855-412.467-224.394-413.327-222.631-414.398-220.582-415.017-219.298-417.601-214.509-422.302-205.889-433.002-201.777-437.566-200.045-442.117-199.274-446.591-199.181-447.591-198.562-449.059-198.258-450.534-198.601-453.213-198.94-455.712-199.574-458.12-200.359-458.927-200.532-459.736-200.706-460.532-200.911-459.767-200.716-458.983-200.542-458.19-200.381-458.938-200.627-459.693-200.862-460.419-201.147-462.185-201.635-463.957-202.186-465.766-202.877L-463.804-202.44C-481.641-206.355-498.547-229.117-498.038-242.527-498.117-255.217-498.045-250.116-492.6-233.924L-488.905-227.245-488.406-226.607C-494.203-236.049-497.05-246.408-494.727-251.703-494.364-253.885-494.028-251.962-493.682-251.493-493.113-252.205-493.228-245.655-490.411-237.473-489.628-235.115-488.684-232.976-487.737-231.066-487.094-229.898-486.395-228.77-485.645-227.672-485.697-228.068-485.741-228.468-485.772-228.867-486.302-229.774-487.059-231.191-487.817-232.799-489.061-235.258-489.101-235.304-491.09-241.696-490.982-241.398-490.717-240.698-490.112-239.132-490.242-239.479-490.496-240.169-490.996-241.553-490.996-241.564-490.996-241.553-490.522-240.887-490.504-240.887-490.545-240.87-491.145-242.127-491.145-242.116-491.152-242.127-491.123-243.407-491.109-243.42-491.152-243.377-492.514-249.09-492.5-249.543-492.46-250.607-492.305-253.279-492.305-253.279-492.23-254.015-492.132-254.546-492.059-254.611-492.068-254.62-491.708-256.858-491.708-256.858-491.619-256.888-491.534-256.656-491.471-255.958-491.471-255.958-491.236-255.763-491.236-255.763-491.172-254.985-491.123-253.854-491.062-252.792-491.209-252.502-490.938-248.541L-490.891-249.504C-490.381-250.313-490.67-250.218-488.901-245.524-488.849-245.529-488.509-242.842-486.833-238.79-486.031-236.617-485.57-235.449-485.002-234.329-485.199-235.425-485.324-236.545-485.243-237.736L-485.021-238.026-485.082-238.227-484.772-239.727-484.607-239.855-484.515-239.581-484.807-238.064-484.88-237.96-484.714-237.599C-484.425-235.13-483.87-232.985-483.029-230.983-482.793-230.608-482.517-230.17-482.229-229.712-482.597-230.82-482.989-231.907-483.245-233.186-483.757-235.098-483.795-237.113-483.856-239.23L-483.72-239.44-483.599-239.224C-483.339-234.994-482.963-231.188-480.667-227.797L-480.361-227.442-480.861-231.466C-482.338-234.629-483.937-238.372-482.4-242.432-482.331-242.629-482.159-242.751-482.033-242.701L-481.908-242.274C-482.331-240.095-481.538-238.216-480.841-236.48L-480.765-236.922-480.8-237.321C-481.203-238.464-481.34-239.647-481.2-240.857-481.289-241.318-480.818-241.613-480.41-241.525-480.008-241.438-479.849-241.188-479.751-240.829L-479.683-240.979-479.538-241.042-479.429-240.887-479.681-240.324C-479.605-238.836-478.981-237.22-478.292-235.627-478.207-235.538-478.147-235.482-478.05-235.376-478.55-237.343-479.093-239.35-478.765-240.734L-478.956-240.747-478.965-240.892-478.772-240.87C-478.578-241.627-478.311-241.99-477.912-242.421L-477.809-242.356-477.765-242.181C-478.326-241.981-478.543-240.972-478.503-239.603L-478.226-239.833-477.919-239.686-477.724-239.021-476.988-239.511-476.092-239.466C-476.343-240.076-475.532-240.358-475.543-240.496-475.414-240.474-475.275-240.453-475.128-240.433-474.76-240.174-475.746-239.609-475.196-238.61-474.335-237.788-473.69-237.056-472.764-236.062-471.673-234.622-470.786-232.919-469.838-231.221L-468.23-229.91-467.96-230.401-467.841-230.495-469.137-231.732C-471.061-233.686-472.497-236.12-472.923-238.191-473.266-239.232-473.11-240.068-472.939-240.369-472.609-240.396-472.27-240.433-471.918-240.499-470.507-240.747-472.032-240.043-471.477-239.129-471.457-237.869-470.845-236.405-470.114-234.902-469.181-233.088-467.719-231.69-466.221-230.259L-465.701-229.918-465.26-229.458C-464.025-228.365-462.543-227.644-461.111-226.931-462.563-228.173-463.882-229.536-464.901-231.144L-464.855-231.494-464.494-231.483C-462.841-229.609-460.865-227.922-458.768-226.562-457.51-227.349-456.017-227.179-454.91-226.831L-453.882-226.021-454.469-226.119C-453.964-225.846-453.652-225.344-453.325-224.82H-453.187C-451.895-225.201-450.756-224.607-449.601-224.648L-449.781-224.203-449.133-224.596-449.385-224.285H-449.367C-449.084-224.503-448.784-224.575-448.497-224.538-447.69-225.091-446.902-225.45-446.132-225.625-446.024-225.815-445.879-225.95-445.716-225.972L-445.512-226.159C-445.04-226.958-444.525-227.398-444.035-227.847L-444.319-227.382-443.868-227.693-443.898-227.406C-443.441-228.19-442.781-228.037-442.214-227.116-441.64-226.202-441.45-224.908-441.993-224.159L-442.089-224.014C-441.917-223.968-441.748-223.902-441.584-223.769-440.246-224.326-439.098-225.02-438.477-225.827-437.189-227.455-435.999-228.948-434.969-230.753L-433.083-234.233C-436.658-228.338-439.847-227.104-439.693-228.365-439.417-230.205-433.077-241.438-432.643-260.894-432.186-273.38-433.442-286.526-435.294-299.805-436.187-306.468-437.27-313.164-438.322-320.082L-439.095-325.334-439.469-328.018-439.659-329.353C-438.888-330.151-438.487-330.568-438.314-330.748H-438.315C-439.128-329.921-444.212-324.678-438.331-330.764-438.506-330.929-438.678-331.097-438.821-331.289L-438.816-331.598-438.523-331.745-437.422-331.704C-437.252-331.881-437.063-332.075-436.877-332.27-437.617-332.676-438.164-333.356-438.306-334.413L-438.223-334.795-437.902-334.875-436.086-334.407-435.886-334.62-435.772-334.67-436.007-334.708-436.075-335.408-436.079-335.432-436.094-335.601-436.084-335.622-436.086-335.664-436.21-335.716-436.254-335.866-436.391-335.776-436.897-335.958-436.8-336.049-436.931-336.21-437.247-336.368-437.026-336.466-437.185-336.409-437.033-336.589-437.212-336.417-437.145-336.589C-437.142-336.586-437.145-336.589-437.62-336.288L-437.672-336.466-437.626-336.589-437.503-336.882-437.401-337.029-437.208-337.23-437.075-337.31-436.815-337.327-436.767-337.439C-436.55-337.783-436.55-337.783-435.864-338.407L-435.387-338.582-434.977-338.452-434.827-338.416-434.528-338.599-434.569-338.729-434.285-339.167-433.191-340.442-432.842-340.999-432.081-342.542-431.787-342.966-430.782-343.612-430.648-343.672-430.433-344.057-427.61-345.748-427.052-346.013-425.78-346.21-425.389-346.073-425.191-345.933C-425.172-346.605-424.864-347.366-424.293-347.962-423.346-348.938-422.013-349.05-421.328-348.235-419.959-347.004-418.64-345.775-417.393-344.437-413.751-343.475-410.294-342.294-407.849-340.781-392.452-332.742-382.211-322.783-371.511-313.687-366.282-309.088-361.114-304.622-356.717-301.547-349.761-296.37-345.03-292.597-339.028-287.995-304.973-262.12-275.811-236.747-243.89-209.878-214.427-183.116-185.594-158.243-157.272-131.355-133.513-109.127-116.092-91.455-94.72-72.407-94.104-71.852-94.1-71.729-94.482-71.967-95.028-72.333-95.932-73.071-96.478-73.573-131.051-103.024-163.719-135.251-201.121-167.401-205.325-170.984-209.976-174.796-213.664-178.012L-215.186-179.279-226.627-188.934-222.697-185.51C-220.084-183.249-217.987-181.174-217.974-180.813-218.036-180.726-218.47-180.967-219.134-181.442-209.758-172.753-200.46-164.949-191.23-156.301-188.421-153.86-185.908-151.533-183.792-149.482L-151.09-121.221-148.368-118.911C-144.785-115.831-141.471-112.696-139.965-110.967-139.479-110.424-139.22-110.061-139.12-109.84-114.855-87.774-89.75-66.071-65.407-47.164-64.161-46.221-63.548-45.662-63.828-45.705L-62.165-44.537C-59.279-42.261-56.018-39.729-52.499-37.202-51.727-36.653-51.342-36.307-51.751-36.501-52.158-36.68-53.078-37.242-53.763-37.74-57.313-40.405-60.778-43.031-63.916-45.489-64.249-45.755-64.456-45.942-64.494-46.021-65.268-46.476-66.431-47.259-67.544-48.08-92.991-67.308-116.134-87.824-140.255-109.305-128.694-98.524-116.695-87.688-103.816-76.643-88.268-63.312-73.828-51.17-56.991-39.231-56.115-38.62-55.573-38.142-55.705-38.152-55.86-38.171-56.614-38.624-57.468-39.261-91.959-63.801-118.74-89.681-151.614-118.594L-155.478-122.002C-145.765-112.576-136.228-103.344-126.616-94.232-96.24-67.834-65.323-42.118-31.61-21.386-29.953-20.392-28.68-19.486-28.794-19.383-28.898-19.267-30.367-20.033-32.009-21.024-51.405-32.375-69.953-45.437-87.921-59.279L-84.308-56.175-80.574-53.273C-68.973-44.408-57.142-35.846-44.862-27.86-40.329-24.794-36.533-22.33-36.52-21.789-36.618-21.458-40.389-23.12-44.779-26.06L-42.674-24.591C-41.979-24.1-41.479-23.711-41.717-23.785-42.046-23.885-42.982-24.476-43.685-24.934L-51.18-30.223C-74.538-45.523-96.397-62.966-117.629-81.02-95.05-61.265-71.232-42.17-45.476-25.339-45.97-25.721-45.984-25.834-45.321-25.453-44.747-25.136-43.661-24.417-43.157-24.029-42.614-23.61-42.729-23.594-43.237-23.866-29.294-15.122-14.909-6.885 .295-.158 1.182 .246 1.909 .665 1.86 .735 1.807 .803 .971 .471 0 0" fill="#e83b3b"/>
<path transform="matrix(1,0,0,-1,166.7956,218.7399)" d="M0 0C-.27-.228-.685-.58-1.286-1.088L-1.513-1.117-2.209-1.205C-1.804-.861-1.406-.526-1.027-.203L-.802-.156-.317-.063-.075-.019-.014 0H-.009C-.785-.661-.399-.335-.002 0H0V.002C.403 .341 .786 .667 0 0M-2.991 .056-7.021-.678C-10.49-.776-13.871-.734-16.896 .117-18.281 1.587-20.814 3.487-22.837 5.317L-24.981 7.446-24.185 6.294C-25.129 7.29-26.104 8.059-26.843 9.134L-26.973 9.451C-28.023 12.151-28.841 15.715-29.138 19.071L-29.478 18.811-29.151 20.545-29.428 19.958V19.997L-29.178 22.599C-28.547 24.719-27.87 27.24-27.076 29.729-26.865 30.019-26.664 30.448-26.525 30.968L-26.186 31.593C-24.94 32.759-24.064 34.444-22.752 35.64L-23.61 34.928-22.605 36.2-22.896 36.151C-21.521 37.39-20.365 38.93-20.066 39.946-19.815 41.153-20.492 41.882-22.242 41.331L-22.43 41.25C-22.099 41.647-21.82 42.033-21.615 42.401-18.505 43.415-15.466 42.847-12.679 41.258-12.728 41.258-12.801 41.288-12.821 41.257-12.896 41.142-12.681 40.847-12.339 40.558L-10.646 39.236C-11.235 39.471-11.683 39.506-11.874 39.313-12.065 39.133-11.994 38.772-11.753 38.378-14.147 40.271-16.659 40.593-18.718 40.227L-18.864 40.056-18.554 40.069C-15.655 40.585-12.262 38.527-9.423 35.165-7.729 32.065-6.2 28.937-5.035 25.083-3.201 19.603-1.79 14.194-1.096 8.73-1.059 6.75-1.096 4.798-1.309 2.924-1.419 3.198-1.561 3.364-1.716 3.378L-1.837 3.345C-1.667 4.97-1.681 6.663-1.771 8.399-1.469 23.475-13.803 43.403-20.656 37.123-21.214 36.8-21.505 36.375-21.295 36.151-21.083 35.921-20.505 35.949-20.03 36.268-17.423 37.669-14.427 36.656-9.97 30.766-7.28 26.776-5.469 22.41-4.047 17.32-2.492 11.423-2.138 5.476-2.991 .056M-3.241-1.338-4.478-1.496C-4.448-1.305-4.394-1.142-4.378-.934-4.377-.921-4.382-.916-4.38-.905-4.164-.852-3.951-.823-3.732-.762L-3.105-.634ZM-3.73-3.159C-4.142-3.508-4.557-3.861-5.049-4.276V-4.268L-5.04-4.246-5.024-4.147C-4.986-3.902-4.921-3.685-4.867-3.455-4.488-3.135-4.007-2.728-3.471-2.275ZM-11.481-1.526C-9.275-1.513-7.083-1.485-4.813-1-4.814-1.009-4.816-1.013-4.818-1.021L-4.953-1.557C-7.255-2.044-9.343-1.554-11.481-1.526M-30.384 23.808-30.74 23V23.112L-30.526 24.212-30.645 24.016-29.913 28.161C-29.254 30.188-28.439 32.231-27.547 34.175-27.715 33.427-27.813 32.706-27.836 32.044-28.964 29.711-29.855 27.207-30.211 24.376ZM-33.04 26.465-33.021 27.041C-33.021 27.251-32.958 27.609-33.144 27.44-32.987 29.002-32.315 30.454-31.976 32.033L-31.54 33.709-29.957 35.364C-30.645 34.165-31.366 32.723-31.746 31.254-32.295 29.685-32.849 28.123-33.04 26.465M-32.351 47.529-32.207 45.91-32.45 47.488ZM-31.708 39.722-31.47 39.855C-31.542 39.814-31.612 39.775-31.708 39.716ZM-1.161 26.517-.487 24.772H-.494C-.669 24.513-.759 24.054-.773 23.475-2.049 27.251-3.725 30.851-5.902 34.042-7.407 36.464-9.186 38.74-11.327 40.388-6.918 37.284-3.257 31.799-1.161 26.517M13.261 5.027C12.894 10.041 12.112 14.822 10.691 19.409 8.322 27.121 4.903 32.486 .305 38.059 .161 38.217 .097 38.204 .117 38.081L.449 37.527C6.915 28.221 10.379 17.528 10.754 5.432L10.553 1.262 10.488 .756 9.747-3.067 9.963-1.712C10.115-.827 10.079-.046 9.887 .03L9.597-.265C9.698 2.941 9.542 6.013 9.033 8.954L8.693 11.337C8.509 14.743 8.052 18.12 7.404 21.487L7.251 22.326C6.984 23.426 6.553 24.447 6.164 24.89L5.863 25.141C3.112 32.333-.542 39.837-7.375 44.432-7.729 44.648-7.953 44.714-7.961 44.599L-8.38 44.924C-9.25 45.364-10.077 45.986-11.245 46.303-11.489 46.376-11.639 46.385-11.553 46.297L-11.01 45.986C-9.823 45.656-9.048 44.9-8.084 44.462L-7.875 44.397-7.161 43.772C-.925 38.57 2.552 31.858 5.001 24.753 3.611 28.183 1.928 31.601-.205 35.007-2.956 39.012-5.972 42.511-10.448 45.14-10.675 45.276-10.88 45.292-10.88 45.232-10.891 45.15-10.675 45.061-10.48 44.9-1.801 39.14 2.748 31.025 5.537 21.353L5.768 20.188C4.544 23.112 3.273 25.913 1.649 28.519-1.728 36.44-7.68 46.267-18.05 46.35-18.519 46.434-18.878 46.232-18.864 46.134-18.845 46.024-18.458 46.019-18.014 45.926-12.606 45.686-8.357 41.94-5.476 37.963L-6.275 38.665-7.016 39.4C-9.011 41.94-11.872 43.654-14.868 44.735-16.052 44.952-17.077 44.779-17.157 44.476-17.189 44.162-16.415 43.786-15.39 43.654H-15.908L-16.172 43.562-15.754 43.434C-15.126 43.509-14.599 43.152-14.008 43.043-8.907 40.732-5.333 35.591-2.783 30.318-5.789 35.842-10.057 41.235-15.563 42.884-15.437 42.914-15.409 42.972-15.536 43.026L-16.011 43.07-16.036 42.933-16.027 42.928C-17.865 43.404-19.728 43.126-21.558 42.501-21.441 42.725-21.346 42.943-21.302 43.152-21.244 43.509-21.579 43.638-21.773 43.851-21.931 44.26-22.752 44.053-23.665 43.447-23.976 43.292-24.193 43.058-24.368 42.807-25.385 42.046-26.305 40.97-27.288 40.091L-27.598 39.378C-27.577 39.22-27.421 39.264-27.247 39.487-26.624 40.301-25.808 40.787-25.056 41.288L-24.966 41.508C-24.959 41.455-24.986 41.388-24.993 41.329-24.92 41.378-24.855 41.433-24.783 41.483-24.81 41.429-24.822 41.376-24.851 41.32L-25.016 41.178C-25.053 41.047-25.109 40.907-25.184 40.76-26.282 39.644-27.349 38.454-28.341 37.123L-28.638 37.166-28.866 36.981-28.289 37.716C-27.875 38.909-27.714 39.378-27.605 39.711H-27.602L-27.571 39.804-27.411 40.271-27.421 40.292-27.391 40.416-27.029 40.825-26.747 41.243-26.479 41.331C-25.726 42.049-25.726 42.035-24.987 42.786L-25.086 42.84C-25.06 42.857-24.895 43.204-24.581 43.447-24.274 43.663-24.267 43.654-23.483 44.138-23.483 44.138-23.474 44.138-23.955 44.02L-23.558 44.154C-23.558 44.154-23.558 44.162-23.767 44.26L-23.483 44.189C-23.483 44.189-23.483 44.181-23.451 44.425-23.456 44.419-23.433 44.425-22.551 44.476L-22.163 44.9-22.083 45.087C-22.11 45.15-22.11 45.15-21.973 45.528L-22.071 45.656-22.294 45.795-22.581 45.749C-22.724 45.686-22.759 45.672-23.282 45.413L-23.23 45.593C-23.349 45.954-23.316 45.967-24.43 46.188-24.43 46.188-24.913 46.112-25.61 45.817-26.351 45.374-26.383 45.427-27.09 44.697-27.09 44.697-27.253 44.55-27.534 44.29L-28.121 44.053H-28.125L-27.814 44.528C-27.598 44.959-27.695 45.15-28.06 44.952-28.109 45.73-28.666 45.849-29.496 45.645L-29.729 46.254C-29.507 47.22-29.496 47.99-29.709 48.558L-29.957 48.985C-30.408 49.071-31.184 48.755-32.179 48.056L-32.503 47.859-32.556 48.378C-34.46 47.982-37.04 45.931-38.771 44.637L-39.996 43.578C-41.016 42.849-41.853 41.35-42.779 39.506L-43.72 37.543-44.133 36.243C-43.952 38.564-43.979 40.017-44.888 39.889-46.369 39.673-49.087 34.69-49.6 28.756-51.698 13.842-46.854-4.667-30.396-14.344-18.175-20.607-6.6-19.341 3.597-17.243L3.834-17.194 3.957-17.157H3.977L3.994-17.15H4.007C-2.431-22.601 12.782-9.735 11.216-11.051L11.238-10.982 11.407-10.428 11.726-9.32 12.318-7.091C12.775-5.573 12.843-4.246 13.017-2.864 13.435-.063 13.288 2.458 13.261 5.027" fill="#e83b3b"/>
</g>
</g>
</g>
</g>
</svg>
